<svg width="216" height="65" fill="none" xmlns="http://www.w3.org/2000/svg"><g style="mix-blend-mode:overlay" opacity=".1" fill="#fff"><path d="M34.53 34.794a16.214 16.214 0 013.43 11.424c4.663.147 10.228-1.046 13.98-1.755a16.14 16.14 0 00-2.87-9.351c-1.022-1.336-1.886-2.75-2.908-4.087-2.75-3.303-3.956-3.2-6.71-6.497a15.053 15.053 0 01-3.851-10.768 5.286 5.286 0 011.652-4.009 2.373 2.373 0 013.773.552c.37.855.633 1.752.785 2.671.157 1.337.157 2.595.394 3.93a2.111 2.111 0 003.064 1.415 7.157 7.157 0 003.537-8.569c-1.336-3.457-3.694-6.05-7.545-6.836a25.917 25.917 0 00-5.501-.394 10.199 10.199 0 00-8.802 5.11c-4.716 7.387-4.167 15.01 1.492 21.69 2.594 2.985 3.723 2.408 6.08 5.474zm28.966 7.817c.464-.95.968-1.879 1.51-2.787.835.275.893.663.872 1.064.012.474.019.95.03 1.426 2.27-.269 4.543-.508 6.819-.716a25.054 25.054 0 01-.032-.29 51.301 51.301 0 00-1.75-5.38 5.767 5.767 0 00-8.085-3.097 8.905 8.905 0 00-3.632 2.841 36.702 36.702 0 00-4.375 8.107c2.88-.413 5.761-.802 8.643-1.168zm5.223-18.081a18.047 18.047 0 005.344 1.495c1.652.31 3.694-.394 4.873.943 1.415 1.652 0 3.613-.236 5.344l-1.477 8.911c3.545-.257 7.1-.43 10.667-.465a8.46 8.46 0 011.47.12 502.17 502.17 0 011.756-7.78c1.178-4.637.32-6.122 4.639-5.82a6.502 6.502 0 001.961-.158 12.81 12.81 0 002.436-.864 2.959 2.959 0 002.044-2.673 3.565 3.565 0 00-1.887-2.908 5.803 5.803 0 00-3.379-.942c-4.955.157-3.225-1.018-3.147-5.183a3.97 3.97 0 00-.157-1.021 4.026 4.026 0 00-4.48-3.304 5.075 5.075 0 00-3.852 2.122 24.729 24.729 0 00-2.436 4.48 4.289 4.289 0 01-4.401 2.83 22.165 22.165 0 00-4.558.156 35.424 35.424 0 00-5.03.944 2.102 2.102 0 00-1.573 1.807 2.215 2.215 0 001.423 1.967zm51.913 15.952c-.03-.059-.068-.115-.097-.174-2.673-4.794-4.165-4.479 1.572-9.274a38.735 38.735 0 004.244-3.693c1.494-1.494.785-3.46-1.179-4.167a3.414 3.414 0 00-3.613.866c-1.494 1.178-2.751 2.594-4.165 3.85a1.264 1.264 0 01-2.123-.55c-.55-1.808-.819-9.777-.662-11.743a18.97 18.97 0 00-1.021-6.916 6.456 6.456 0 00-1.886-2.908 2.609 2.609 0 00-3.031-.392 2.616 2.616 0 00-.821.702 10.08 10.08 0 00-1.414 2.75 33.365 33.365 0 00-1.101 5.575c-.661 7.336-1.238 18.961-1.738 27.666a106.126 106.126 0 0117.035-1.592z" opacity=".1"/><g style="mix-blend-mode:overlay" opacity=".1"><path d="M166.947 41.773c.286-.413.573-.848.857-1.342a5.938 5.938 0 012.434-3.01l-1.64-3.97a19.454 19.454 0 00-2.928 3.948 21.236 21.236 0 01-2.053 2.769 7.965 7.965 0 00-1.141 1.606c1.49.012 2.98.012 4.471 0z" opacity=".1"/><path d="M169.844 40.329c.839.62 1.17.943 1.198 1.369 3.097-.085 6.171-.184 9.236-.226.468-.71.869-1.46 1.198-2.243a2.618 2.618 0 00-.393-3.145 2.657 2.657 0 00-3.144-.55 21.56 21.56 0 00-2.83 1.809 3.714 3.714 0 01-1.961.864c-.472-.079-.865-.236-.707-.787.078-.55.472-.942.629-1.493.628-1.886 0-3.222-1.652-3.772-1.494-.471-2.908.393-3.458 2.2-.709 2.437-.396 4.402 1.884 5.974z" opacity=".1"/></g><path d="M197.168 39.181c.786.395.786.787.707 1.179-.084.676-.173 1.352-.26 2.029.281.056.557.134.826.234h6.09l.031-.848a50.795 50.795 0 00-.942-5.574 5.764 5.764 0 00-5.134-4.546 5.769 5.769 0 00-2.411.301 8.911 8.911 0 00-4.008 2.28 36.714 36.714 0 00-5.448 7.268c2.812.068 5.627.24 8.454.552a35.488 35.488 0 012.095-2.875z" opacity=".1"/><g style="mix-blend-mode:overlay" opacity=".1"><path d="M140.788 40.59a7.507 7.507 0 013.275.747c7.084.132 14.171.454 21.254.444a8.793 8.793 0 00-.303-3.29 10.07 10.07 0 01-.078-4.852c.413-1.796.168-2.005-1.04-3.845-1.208-1.839-.782-2.764-.427-4.21.356-1.444.436-2.46-.774-3.128-1.21-.668-1.17-1.175-1.207-2.23-.036-1.055.395-1.563-1.167-2.347-1.562-.785-2.891-.32-3.163-1.064-.382-1.043-4.452-1.494-6.137.413-1.685 1.908-2.04 3.357-3.681 3.2-1.642-.156-3.36-.476-4.926 1.083-1.566 1.56-2.499 2.804-4.26 2.59-2.535-.31-2.565 1.76-3.613 2.623-.722.6-2.477.791-3.103 2.271-.625 1.48.2 1.962-.898 3.288-1.097 1.327-1.64 1.505-2.151 3.03-.363 1.08-.145 3.334-.264 5.116 4.147.037 8.355.132 12.663.161z" opacity=".1"/><path d="M154.829 14.483c-.16.015-.839.093-1.84.207-1 .114-2.105.391-2.718.43a1.668 1.668 0 01-1.457-.477c-.591-.475-2.787-2.53-4.478-2.699a30.81 30.81 0 00-5.239.032c-1.516.128-5.947.323-9.449 2.453a12.164 12.164 0 00-4.771 6.22.982.982 0 00.188.876 9.953 9.953 0 002.651 1.849 10.456 10.456 0 006.029.87 24.312 24.312 0 007.521-2.182c.565-.459 4.202-2.84 5.622-3.71 1.419-.87 3.392-2.684 4.004-2.72.612-.037 3.079-.639 3.688-.613.465-.018.928-.063 1.388-.133.343.004.686.04 1.023.109.253.075.456.597.412.756-.043.16.104.62-.028.738-.133.119-.377.466-.322.693.054.227-.207 1.073.439 1.1.646.028 1.883.723 1.962.526.499-1.288-.546-2.157-.6-2.416a7.482 7.482 0 01-.056-.934s.845.261.686 0c-.159-.261-.837-.228-1.146-.499-.31-.27-.545-.762-1.084-.946a5.54 5.54 0 00-.856-.261c-.223-.042-.111.349-.111.349s-.791-.292-1.297-.474a9.471 9.471 0 01-1.76-.91c-.249-.207-.48-.793-1.212-.953a38.047 38.047 0 01-2.193-.577c-.381-.113-.917-.328-1.724-1.744-.806-1.416-5.532-5.313-6.58-5.84-1.049-.528-4.336-3.271-6.798-3.57a5.385 5.385 0 00-4.336 1.484 5.63 5.63 0 00-.121 4.336c.74 2.216 6.124 5.884 6.484 6.09 3.076.369 6.176.48 9.27.335.939-.412 1.91-.747 2.903-1 .351.047 3.044.928 3.044.928l-.076.286s-1.819-.302-1.979-.31c-.16-.007.24.396.529.413.289.018.893.168 1.435.255.826.206 1.631.488 2.405.843.314.171.995.751.548.79z" opacity=".1"/></g></g><path d="M20.262 2.91c3.851.786 6.21 3.38 7.545 6.837a7.158 7.158 0 01-3.537 8.569 2.112 2.112 0 01-3.065-1.415c-.236-1.335-.236-2.593-.393-3.929a11.469 11.469 0 00-.786-2.672 2.374 2.374 0 00-3.773-.552 5.286 5.286 0 00-1.651 4.009 15.053 15.053 0 003.851 10.768c2.751 3.303 3.958 3.2 6.71 6.497 1.022 1.337 1.886 2.751 2.908 4.087 2.751 3.93 3.223 8.258 2.673 12.812a9.916 9.916 0 01-3.695 6.758 29.485 29.485 0 01-14.142 6.21c-4.48.863-9.196-2.123-11.318-6.607a19.287 19.287 0 01-1.571-8.489 7.6 7.6 0 01.156-1.337 3.48 3.48 0 013.065-3.378 4.382 4.382 0 014.167 2.279c.595 1.39.889 2.89.864 4.4.106 1.294.29 2.58.55 3.852a5.464 5.464 0 002.044 3.222 1.83 1.83 0 002.515.08 8.441 8.441 0 001.1-1.26 16.319 16.319 0 00-.943-18.861c-2.358-3.066-3.487-2.489-6.08-5.471-5.659-6.68-6.208-14.304-1.492-21.692a10.198 10.198 0 018.8-5.109 25.922 25.922 0 015.498.393zm50.682 33.014a51.301 51.301 0 011.75 5.382c.443 4.066.8 7.032 1.084 10.013.126.855.253 1.71.445 2.477.227 1 .544 2.065 1.69 2.292 1.39.272 2.019-.855 2.513-1.802a42.266 42.266 0 001.991-4.267l1.012-2.295a3.36 3.36 0 01.716-1.059 1.471 1.471 0 011.51-.54 1.18 1.18 0 01.907 1.295 16.42 16.42 0 01-4.24 10.003c-3.097 3.238-7.227 3.77-10.721 1.108-1.961-1.457-3.344-1.651-5.293-.329a6.17 6.17 0 01-3.71.708c-3.679-.171-5.755-1.85-6.529-5.47a15.13 15.13 0 01-.24-5.923c.778-4.406 2.916-8.218 5.398-11.843a8.904 8.904 0 013.632-2.841 5.767 5.767 0 018.085 3.091zM60.97 50.67c-.05.843.022 1.688.212 2.511.115.777.53 1.43 1.318 1.394a2.357 2.357 0 001.498-.62A8.258 8.258 0 0065.97 48.5c.021-2.546-.037-5.08-.094-7.614.021-.4-.037-.788-.872-1.063A28.425 28.425 0 0060.97 50.67z" fill="#006100"/><path d="M93.633 13.529c.097.332.15.675.157 1.02-.078 4.166-1.804 5.34 3.147 5.184a5.802 5.802 0 013.379.942 3.562 3.562 0 011.887 2.908 2.96 2.96 0 01-2.044 2.673c-.78.37-1.597.659-2.436.864a6.502 6.502 0 01-1.961.158c-4.318-.302-3.46 1.183-4.64 5.82-1.415 5.974-2.672 11.947-3.93 17.92-.153.83-.231 1.67-.236 2.514-.078.708.865 1.179 1.494.944 1.571-.786 3.918-2.187 5.211-2.865 3.289-2.186 4.476-3.064 6.047-5.5a22.058 22.058 0 013.852-4.715 2.269 2.269 0 012.437-.236 1.974 1.974 0 01.786 2.278c-2.28 8.097-9.53 12.295-17.076 15.99-4.008 1.96-8.959.942-11.788-4.087a15.125 15.125 0 01-1.809-7.388l2.594-15.64c.236-1.73 1.652-3.694.236-5.345-1.18-1.337-3.222-.628-4.873-.943a18.047 18.047 0 01-5.344-1.494 2.214 2.214 0 01-1.415-1.961 2.102 2.102 0 011.572-1.808 35.568 35.568 0 015.03-.944 22.157 22.157 0 014.558-.156 4.289 4.289 0 004.401-2.83 24.716 24.716 0 012.437-4.48 5.076 5.076 0 013.851-2.122 4.026 4.026 0 014.476 3.299z" fill="#006100"/><path d="M113.589 8.681a18.927 18.927 0 011.021 6.916c-.157 1.962.113 9.935.663 11.744a1.262 1.262 0 002.121.549c1.416-1.256 2.673-2.672 4.167-3.85a3.412 3.412 0 013.613-.866c1.961.707 2.672 2.673 1.179 4.167a38.724 38.724 0 01-4.244 3.693c-5.738 4.795-4.245 4.48-1.572 9.274a13.816 13.816 0 002.908 3.852c1.807 1.729 3.303 1.729 5.502.393.629-.393 1.179-.865 1.807-1.179a2.909 2.909 0 013.613.786 3.33 3.33 0 01-.078 3.693 7.47 7.47 0 01-8.095 2.908 19.429 19.429 0 01-10.847-8.488c-.235-.31-.156-.864-.943-.864a30.051 30.051 0 00-.471 11.24c.248 1.586.379 3.188.392 4.793a3.163 3.163 0 01-2.21 3.266 3.176 3.176 0 01-1.403.114 7.02 7.02 0 01-6.836-6.288 37.706 37.706 0 01-.552-7.86c.552-8.723 1.225-23.536 2.011-32.256.208-1.886.576-3.75 1.101-5.574a10.08 10.08 0 011.414-2.751 2.605 2.605 0 013.851-.31 6.447 6.447 0 011.888 2.898zm55.009 24.769a19.454 19.454 0 00-2.928 3.948 21.236 21.236 0 01-2.053 2.769s-1.517 1.658-1.227 2.226c.29.567 1.676 2.036 1.676 2.384 0 .2 1.97-1.27 3.738-4.347a5.938 5.938 0 012.434-3.01l-1.64-3.97z" fill="#006100"/><path d="M173.066 35.927c-.157.55-.55.944-.628 1.493-.158.551.235.708.707.787a3.719 3.719 0 001.961-.864 21.55 21.55 0 012.83-1.809 2.66 2.66 0 013.144.55 2.62 2.62 0 01.392 3.145c-.376.913-.85 1.783-1.414 2.594a72.97 72.97 0 00-5.03 11.71c-.471 1.178-1.414 2.829.236 3.85 1.336.787 2.672-.314 3.772-1.1a17.859 17.859 0 002.516-2.358c1.806-2.12 3.613-4.322 5.422-6.523a22.626 22.626 0 012.28-2.514 1.538 1.538 0 011.961-.08 1.444 1.444 0 01.31 1.887c-.101.252-.233.49-.393.707a57.527 57.527 0 01-8.569 9.903 11.963 11.963 0 01-6.837 3.145c-4.717-.63-7.625-1.888-8.568-6.21a7.013 7.013 0 01.471-4.558c.943-2.201 1.962-4.402 2.987-6.607.628-1.493.707-1.652-.787-2.75-2.279-1.572-2.593-3.537-1.886-5.974.55-1.807 1.961-2.671 3.458-2.2 1.665.557 2.291 1.89 1.665 3.776z" fill="#006100"/><path d="M203.613 36.196c.416 1.84.731 3.7.943 5.574-.158 4.087-.236 7.073-.393 10.06 0 .865 0 1.729.078 2.516.079 1.022.236 2.122 1.336 2.514 1.342.472 2.123-.549 2.751-1.414a42.345 42.345 0 002.594-3.93l1.336-2.122a3.35 3.35 0 01.864-.943 1.471 1.471 0 011.572-.31 1.174 1.174 0 01.707 1.415 16.407 16.407 0 01-5.658 9.275c-3.537 2.75-7.702 2.672-10.767-.472-1.729-1.729-3.066-2.122-5.188-1.1-1.21.445-2.53.5-3.773.157-3.613-.708-5.422-2.673-5.659-6.367-.181-1.987.033-3.99.629-5.894 1.415-4.244 4.088-7.702 7.074-10.925a8.914 8.914 0 014.009-2.28 5.766 5.766 0 017.545 4.246zM191.587 49.32a8.815 8.815 0 00-.156 2.516c0 .786.309 1.493 1.1 1.571a2.36 2.36 0 001.572-.392 8.253 8.253 0 002.75-5.11c.394-2.515.707-5.03 1.022-7.545.079-.392.079-.785-.707-1.179a28.436 28.436 0 00-5.581 10.14zM38.373 35.314a19.45 19.45 0 00-1.584 4.653 21.247 21.247 0 01-1.112 3.263s-.938 2.04-.49 2.493c.45.453 2.218 1.43 2.324 1.76.06.19 1.489-1.81 2.234-5.28a5.94 5.94 0 011.4-3.61l-2.772-3.28z" fill="#006100"/><path d="M47.5 34.5c.2.633-.092.364 0 .911.018.573-3.533.07-3.06 0 .663-.306 1.605-.42 1.605-.42.872-.104-5.825-.686-5.045-1.491.41-.405 7.756.342 8.327.263a2.66 2.66 0 011.653.31 2.62 2.62 0 011.333 2.875c-.08.985-.267 1.958-.556 2.902a72.991 72.991 0 00-1.222 12.686c-.088 1.266-.484 3.126 1.4 3.596 1.512.342 2.448-1.115 3.257-2.198a17.853 17.853 0 001.677-3.013c1.074-2.57.123-.218 1.176-2.865.39-1.064.86-2.097 1.404-3.09a1.54 1.54 0 011.843-.674 1.445 1.445 0 01.87 1.703c-.018.27-.072.537-.158.793-1.25 4.197-.975 3.238-3.141 7.044a11.967 11.967 0 01-5.554 5.079c-4.684.84-7.837.527-10.053-3.302a7.02 7.02 0 01-.94-4.485c.226-2.383 2.88-6.711 3.184-9.124.144-1.613-.597-2.41-2.355-3-2.65-.802-5.135-.035-5.205-2.572-.027-1.89 1.054-3.143 2.623-3.15 1.756.023 6.737.589 6.937 1.222z" fill="#006100"/><path d="M31.599 55.85S34.203-.342 38.203 5.158s6.453-5.257 6.179 0c-.792 15.15-7.54 47.753-6.18 49.416-.86 6.837-6.603 8.337-6.603 1.276z" fill="#006100"/><path d="M150.02 28.96c1.253.314 3.092.377 4.216.866 9.755 4.248 11.163 11 9.274 18.351-2.17 8.445-9.656 13.822-21.187 10.89l-.073-.02c-11.517-2.99-15.483-11.308-13.313-19.753 1.889-7.353 6.378-12.589 16.972-11.608 1.221.114 2.862.946 4.111 1.274z" fill="#8ECE00"/><path d="M146.022 32.867c.889.208 1.637 2.463 2.305 3.417.415.559.872 2.357 1.332 2.911.547.545.462 3.994.642 5.967a22.14 22.14 0 01-.093 1.94c-.404 3.423-2.022 5.104-3.769 5.35-3.46.67-7.427-2.165-7.71-7.383-.158-2.337-.285-4.495.116-6.71.194-1.264.558-2.427 1.073-3.434.541-.963 1.337-1.03 2.205-1.311 1.392-.45 2.639-1.035 3.899-.747zm-3.614 7.901c-.201 2.012-.102 4.135.292 6.245.239 1.061 1.753 1.428 2.523.984 1.88-.985 2.91-4.17 2.325-7.61a11 11 0 00-.435-1.402 2.387 2.387 0 00-.347-.643c-.143-.186-1.307-1.334-1.482-1.435a1.051 1.051 0 00-.533-.151.855.855 0 00-.491.16c-.878.576-1.715 2.388-1.85 3.852h-.002z" fill="#fff"/><path opacity=".5" d="M150.239 58.146l-.072-.019c-11.517-2.99-15.483-11.309-13.313-19.754 1.275-4.964 3.736-8.962 8.46-10.735-10.168-.733-14.524 4.443-16.377 11.656-2.17 8.445 1.796 16.764 13.313 19.754l.073.018c4.704 1.197 8.735 1.01 12.006-.204-1.38-.13-2.747-.37-4.09-.716z" fill="#79A21F"/><path opacity=".5" d="M152.624 56.013l-.073.017c-11.578 2.74-18.973-2.762-21.001-11.242-1.498-6.263-.63-12.054 5.666-16.16-4.606 1.807-7.02 5.766-8.279 10.666-2.17 8.444 1.796 16.764 13.313 19.754l.073.018c10.307 2.62 17.381-1.396 20.317-8.31-2.313 2.348-5.627 4.195-10.016 5.257z" fill="#496A00"/><path opacity=".6" d="M131.139 46.117a.543.543 0 01-.403-.48 16.378 16.378 0 01-.045-1.614c.035-1.394.23-2.78.581-4.13.188-.731.4-1.435.631-2.092a.537.537 0 01.994-.055.54.54 0 01.023.411 24.016 24.016 0 00-.604 2.005 17.098 17.098 0 00-.548 3.884c-.011.502.003 1.01.042 1.508a.536.536 0 01-.671.563zm.885 3.995a.542.542 0 01-.371-.331 14.59 14.59 0 01-.541-1.76.534.534 0 01.399-.645.537.537 0 01.648.395c.133.553.3 1.096.502 1.628a.539.539 0 01-.638.713h.001z" fill="#E9E9E9"/><path d="M149.241 27.035l-.819-.34c-.445-.184-.973-.325-1.238-.45a.8.8 0 01-.5-.539c-.137-.336-.581-1.706-1.25-2.17a14.722 14.722 0 00-2.202-1.202c-.664-.298-2.566-1.245-4.527-1.165a5.821 5.821 0 00-3.442 1.498.461.461 0 00-.125.41c.15.498.38.967.682 1.39a5.007 5.007 0 002.323 1.764 11.64 11.64 0 003.657.831c.344-.06 2.42-.214 3.216-.25.797-.034 2.044-.336 2.309-.21.265.128 1.438.448 1.687.6.199.1.404.19.612.266.143.082.278.177.404.283.089.09.052.357-.003.413-.055.056-.1.283-.183.302-.083.02-.266.108-.296.216-.03.108-.335.401-.071.563.264.162.621.74.7.675.508-.424.271-1.03.309-1.15.056-.14.121-.274.193-.405 0 0 .294.305.288.159-.006-.146-.298-.29-.365-.475s-.051-.446-.234-.648a2.71 2.71 0 00-.298-.308c-.084-.069-.128.12-.128.12l-.433-.5a4.552 4.552 0 01-.526-.789c-.056-.144-.017-.443-.287-.68a18.304 18.304 0 01-.784-.75c-.134-.136-.309-.351-.318-1.131-.009-.78-1.084-3.51-1.401-3.974-.317-.465-1.057-2.377-2.019-3.073a2.579 2.579 0 00-2.161-.385 2.7 2.7 0 00-1.057 1.788c-.204 1.1 1.2 3.887 1.303 4.057a26.732 26.732 0 003.806 2.291c.489.046.973.13 1.448.255.136.101 1.06 1.095 1.06 1.095l-.099.102s-.692-.548-.757-.588c-.065-.04.009.22.126.295.117.075.335.277.542.44.298.278.57.583.812.911.091.145.242.546.046.458z" fill="#8ECE00"/></svg>